<?xml version="1.0" encoding="UTF-8"?>
<svg id="Calque_1" xmlns="http://www.w3.org/2000/svg" version="1.1" viewBox="0 0 1722 948">
  <!-- Generator: Adobe Illustrator 29.7.1, SVG Export Plug-In . SVG Version: 2.1.1 Build 8)  -->
  <defs>
    <style>
      .st0 {
        fill: #ef9b2c;
      }

      .st1 {
        fill: #ebe1d4;
      }

      .st2 {
        fill: #e7ded1;
      }

      .st3 {
        fill: #d87e1b;
      }

      .st4 {
        fill: #133770;
      }

      .st5 {
        fill: #e59628;
      }

      .st6 {
        fill: #ece2d5;
      }

      .st7 {
        fill: #af2019;
      }

      .st8 {
        fill: #e2dacd;
      }

      .st9 {
        fill: #ef9d2e;
      }

      .st10 {
        fill: #ece1d3;
      }

      .st11 {
        fill: #ae6c15;
      }

      .st12 {
        fill: #0b0f0c;
      }

      .st13 {
        fill: #ae1f17;
      }

      .st14 {
        fill: #0d346d;
      }

      .st15 {
        fill: #ece1d5;
      }

      .st16 {
        fill: #c62810;
      }

      .st17 {
        fill: #764701;
      }

      .st18 {
        fill: #ee370a;
      }

      .st19 {
        fill: #eecd8f;
      }

      .st20 {
        fill: #12325a;
      }

      .st21 {
        fill: #4b4a47;
      }

      .st22 {
        fill: #cbbfb0;
      }

      .st23 {
        fill: #ece1d4;
      }

      .st24 {
        fill: #a44e07;
      }

      .st25 {
        fill: #e8dfd1;
      }

      .st26 {
        fill: #e8a035;
      }

      .st27 {
        fill: #0d120f;
      }
    </style>
  </defs>
  <path class="st20" d="M854.85,129.22c232.43-3.04,404.55,220.91,337.28,445.28-50.43,168.18-220.23,273.94-394.26,241.27-195.13-36.64-320.83-232.4-271.3-426.08,37.92-148.3,174.07-258.45,328.29-260.46h-.01ZM825.75,230.25c9.83-2.25,26.62.63,34.87-5.25,11.07-7.91,9.31-25.9-3.36-31.12,10.61-5.63,9.15-22.95-.99-28.28-9-4.73-24.36-.47-34.28-.59l3.76,65.25h0ZM918.75,234l-2.35-65.53c-.5-1.46-4.05-1.54-5.65-1.85-3.08-.6-14.72-2.28-17.01-1.5l-23,62.12,15,2.26,3.11-10.4,14.89,1.4.08,11.17,14.93,2.33h0ZM778.49,172.5l-14.24,4.51,6.81,23.52-12.74,4.15-7.58-22.43-15,4.51,21.76,61.5,13.44-4.97c.72-2.38-7.26-19.08-7.44-23.24-.11-2.51,1.43-2.54,3.34-3.32,1.71-.7,8-2.79,9.03-1.48l7.89,24.01,13.41-4.23-18.69-62.53h0ZM951.58,176.46c-2.33.06-6.77,1.25-8.76,2.49-5.58,3.47-10.25,20.81-12.27,27.48-4.75,15.71-11.1,28.08,8.46,36.18,23.24,9.63,27.53-8,34.47-25.54.1-1.04-.5-1.26-1.25-1.69-1.37-.79-18.3-6.37-19.27-6.08l-3.42,9.98,6.39,2.69c-.02,10.76-13.69,14.23-15.3,2.87l9.7-32.37c2.33-3.9,6.92-2.79,10.2-.65,4.38,2.88,1.15,7.58,3.18,9.57.51.5,10.9,4.11,11.7,4.1,2.03-.04,3.3-7.6,3.34-9.4.25-12.11-16.91-19.91-27.19-19.63h.02ZM1022.29,208.53l-24.76,42.37c-4.55,4.04-13-2.23-10.17-7.93l22.91-40.15c.19-.98-.12-1.51-.77-2.21-.48-.52-12.18-6.79-12.75-6.37-2.15,5.24-4.65,10.54-7.38,15.5-4.86,8.83-18.92,28.14-18.14,37.37.75,8.82,13.13,17.47,21.38,18.38,12.69,1.41,15.14-3.87,21.24-13.27,7.52-11.6,13.76-24.2,21.17-35.89l-.11-1-12.63-6.8h.01ZM732,212.99c-4.32-11.22-11.34-17.28-23.77-12.88-9.89,3.5-17.01,10.41-15.97,21.51.64,6.84,15.5,34.39,20.59,39.41,12,11.85,38.56-1.67,34.11-19.86-.5-2.04-2.68-9.02-5.22-8.37-.92.23-10.59,5.17-10.92,5.69-.47,2.25,1.87,3.74,1.99,6.4.21,4.64-4.92,7.69-8.88,5.81-1.89-.9-13.94-22.27-15.56-25.69-1.91-4.02-3.78-7.32.89-10.38,5.88-3.85,7.62-.44,10.42,4.42l12.33-6.06h-.01ZM668.25,267.76l34.22,14.24,10.03-7.14-40.23-50.55c-1.88,1.08-11.01,7.56-10.72,9.22l19.08,24.46-31.51-13.43c-2.01.29-11.65,8.21-11.65,9.3l41.75,48.36c1.24.37,11.18-6.81,10.7-9.18l-21.67-25.27h0ZM1055.94,263.33l-11.91-9.53c-.11-.52,5.79-8.18,6.32-8.6.89-.71.79-.72,1.87-.34,2.54.89,11.27,10.17,13.16,10.18,2,0,6.55-7.39,7.82-9.3-5.16-4.29-10.07-9.08-15.34-13.21-1.76-1.38-8.8-7.1-10.34-6.7l-37.97,49.71,25.76,19.28c1.51-3.64,6.51-6.21,6.35-10.02-.66-2.39-10.96-8.18-12.28-10.29-.62-.99-.56-2.01.01-2.99l6.73-7.55,13.13,9.78,6.71-10.42h-.02ZM1091.24,282c.72,1.87,5.56,8.26,7.13,8.25,1.39,0,9.51-6.82,9.34-7.78-8.95-9.96-16.62-21.52-27.22-29.67l-8.75,8.57c0,2.25,9.7,8.45,7.94,11.63l-34.88,34.05,9.29,10.16,37.16-35.22h-.01ZM655.4,332.15l18.03-24.89-9.23-7.23-10.19,12.37-1.75.26-8.8-7.78,9.01-12.07-9.34-7.84-9.86,11.2c-1.05.17-8.54-5.78-8.53-7.03.85-3.68,10.57-12.21,10.5-15.03-.03-1.29-7.79-8.38-9.99-7.9l-19.94,26.58,48.5,39.33,1.59.04h0ZM838.5,329.25c-16.13-9.34-27.43-28.82-48-29.24,10.54,9.92,22.2,32.06,12,45.36-10.89,14.19-30.57-4.28-41.49-9.51-14.04-6.72-26.3-8.21-41.21-2.69-4.11,1.52-19.21,9.35-20.8,12.96-.37.83.06,1.45,1.02,1.03,17.26-6.64,41.77,3.21,48.85,20.33,3.53,8.54,3.04,22.15-8.29,23.95-16.59,2.65-33.96-15.64-53.98-14.99-13.26.43-31.33,9.05-40.86,18.04h19.12c7.01,0,23.74,10.29,28.51,15.74,10.48,11.96,15.34,38.41-6.02,40.5-16.48,1.61-25.82-9.31-40.13-14.61-17.25-6.38-31.15-2.62-47.99,2.62-.16,1.98-.08,1.24,1.14,1.47,5.09.95,10.05,1.33,15.01,3,14.52,4.89,24.83,16.49,36,26.25,6.5,5.68,20.69,12.22,14.49,22.79-4.41,7.52-12.77,6.15-19.66,3.38-12.2-4.91-18.94-16.06-29.34-23.16-19.35-13.22-43.21-9.76-63.4-.36,4.89,1.51,10.04,1.09,15.03,2.22,26.83,6.1,40.52,35.23,61.56,50.94,10.48,7.82,23.24,13.11,35.92,16.21.41,1.79-.33,1.21-.98,1.67-12.12,8.45-27.13,8.52-39.75,1.18-18.74-10.91-17.36-26.83-43.82-31.93-.9-.17-3.05-.75-2.45.95.12.35,5.05,3.61,6.02,4.5,13.58,12.46,18,29.94,34.13,42.37,18.53,14.28,29.98,8.98,50.17,12.83,8.49,1.62,17.82,8.36,6.48,14.6-1.17.64-8.57,3.34-9.41,3.34h-15.75c-.25,0-3.97-2.02-1.87.37,9.98,6.45,21.58,8.11,32.42,11.87,1.21.42,2.45.12,2.07,2.01-2.38.57-6.6,2.61-9.74,3.38-17.59,4.28-39.23,8.06-55.98,13.77-.98.33-2.29.21-2.52,1.59,41.21-.71,81.68-9.09,121.86-17.25l-.37,15.75c-31.07,4.71-61.15,13.87-91.86,20.27l-1.88,2.24c31.03-2.26,61.85-6.29,92.64-10.56l2.99.81,4.87,10.5-72.51,14.15-1.73,1.6c16.93.16,33.77-.21,50.65-.72,8.68-.26,19.15-1.91,27.75-1.56,6.06.25,12.73,2.72,18.72,3.01,8.45.42,17.17-2.06,25.5-2.98,72.6-7.96,145.72-13.48,217.85-24.4,32.84-12.64,58.71-47.56,54.32-83.64,28.49-9.12,58.63-19.12,81.09-39.7,28.74-26.33,32.54-63.09-6.88-80.91-35.77-16.18-72.94-6.96-109.77-.86,4.23-16.7.72-34.18-4.51-50.24,4.66-1.56,24.91-7.54,26.61-11.27.56-1.22.66-2.7.25-3.97-.51-1.62-21.67-16.21-25.01-19.25-8.9-8.09-15.63-21.37-25.08-30.42-46.21-44.31-124.46-36.97-162.03,14.66h.03ZM1116.66,291.84c-1.68-.98-9.05,5.51-11.22,6.36l6.81,12.29-40.49,27.03c-.39.58,6.71,11.25,7.5,11.66,2.1,1.12,34.62-23.94,39.51-26.59,2.03-.57,5.7,6.05,6.87,7.93.47.76.81,1.58.88,2.49.51.38,10.05-5.6,10.36-6.12.51-.86.08-1.98-.28-2.84-2.33-5.6-10.76-16.34-14.45-22.31-1.96-3.18-3.67-6.63-5.48-9.89h-.01ZM621.75,333.74c4.07-14.29-18.25-26.58-29.5-19.37-4.09,2.61-12.94,18.16-15.15,23.09-.49,1.09-1.26,2.11-1.14,3.4l54.78,32.63c.17-3.1,7.3-10.26,5.68-12.76l-20.66-13.1c.98-1.58,1.67-.74,2.83-.66,8.28.55,16.79,3.06,25.16,3.31l7.25-12.39-1.88-1.14-27.38-3.01h.01ZM1158,369.74l-12.9-30.96-1.69-1.29-55.97,26.71,13.26,29.5,10.74-5.68-6.69-16.75,11.18-3.7,6.52,14.25,10.79-4.2.68-1.35c-1.03-3.43-6.36-11.31-5.96-14.37.25-1.95,8.34-4.71,10.54-5.64l7.52,18.75,11.99-5.26h-.01ZM581.24,358.54c-2.44-.39-10.75-5.1-12.36-3.05-1.9,8.91-8.21,19.08-9.8,27.73-.19,1.04-.71,2.04,0,3.06l58.21,20.65,5.19-13.15-23.2-8.32,4.43-15.67-11.91-3.77-5.26,13.92-10.97-3.42,5.68-17.99h-.01ZM577.88,511.5v.75c.49-.25.49-.5,0-.75ZM971.91,673.59c-1.98-1.25-13.93,6.28-16.29,7.9l1.38,37.75-25.61-26.89-17.11,5.17,26.67,71.16c4.02-1.99,8.64-2.69,12.75-4.36.83-.34,1.16.41,1.09-1.2l-14.28-39.38,21.77,22.9,7.03-1.82,1.57-33.08,17.62,36.41c.78.58,1.48.29,2.28.02,1.05-.35,11.72-6.27,11.92-6.93l-30.78-67.67v.02ZM795.75,695.26l-47.29-18.45-5.95,14.66,16.48,6.03v1.1l-21.71,55.1,16.41,5.26,20.32-54.7,16.43,5.21,5.29-14.21h.02ZM846,703.51l-39.72-5.98-13.51,74.2,41.13,5.92c.86-4.02,2.2-8.62,2.81-12.63.12-.82.51-1.29-.42-1.92l-23.98-3.41,2.97-16.42,20.12,2.88,2.35-14.14-20.26-2.26,2.26-15c7.8,2.1,15.9,3.32,23.99,2.99l2.25-14.24h.01ZM890.94,701.3l-22.33,2.3-12.86,76.39,16.49-.76,1.51-14.24,19.45-1.44,4.3,13.49c4.7-.91,10.33-.77,14.88-1.54.86-.15,1.45-.34,1.84-1.18l-23.27-73.02h-.01Z"/>
  <path class="st12" d="M838.5,329.25c37.57-51.63,115.82-58.96,162.03-14.66,9.44,9.06,16.18,22.33,25.08,30.42,3.34,3.04,24.5,17.62,25.01,19.25.4,1.28.3,2.75-.25,3.97-1.7,3.73-21.96,9.71-26.61,11.27,5.22,16.06,8.73,33.54,4.51,50.24,36.83-6.1,74-15.32,109.77.86,39.42,17.83,35.62,54.58,6.88,80.91-22.46,20.58-52.6,30.58-81.09,39.7,4.39,36.08-21.48,71-54.32,83.64-72.13,10.92-145.25,16.44-217.85,24.4-8.34.91-17.06,3.4-25.5,2.98-6-.3-12.66-2.76-18.72-3.01-8.61-.36-19.07,1.3-27.75,1.56-16.88.5-33.72.88-50.65.72l1.73-1.6,72.51-14.15-4.87-10.5-2.99-.81c-30.79,4.27-61.61,8.3-92.64,10.56l1.88-2.24c30.71-6.39,60.79-15.55,91.86-20.27l.37-15.75c-40.18,8.17-80.65,16.55-121.86,17.25.24-1.38,1.54-1.26,2.52-1.59,16.75-5.71,38.39-9.49,55.98-13.77,3.15-.77,7.37-2.81,9.74-3.38,1.19-.28,3.05.17,4.66-.21,7.87-1.86,15.84-3.84,23.84-5.05.43-1.74-.34-1.24-.95-1.71-4.09-3.21-7.99-5.08-11.36-9.6-9.97-13.4-4.84-33.38,3.31-46.43,4.57-7.31,16.43-19.21,23.25-24.75,9.6-7.79,24.71-16.63,36-21.75,3.8-1.72,10.08-4.73,13.5-6,13.38-4.98,32.49-6.6,43.44-16.18.86-.75,1.85-1.15,1.56-2.56-15.44,3.97-31.08,7.12-46.64,10.57-.77.17-1.14,1.38-1.35,1.43-6.56,1.73-16.44,1.14-22.5,4.5h-6c-.88-.32-1.42.74-1.5.75-8.74,1.24-18.72,2.81-27.37,1.49-1.33-.2-2.6-.13-3.38-1.49,9.93-.57,27.23-8.68,37.5-12,11.88-3.85,24.69-7.71,36.75-10.5,1.02-.24,2.71.28,3.89-.21l50.84-10.31c1.33-9.81-7.51-8-12.76-13.08-8.15-7.9-10.56-35.68-10.47-46.9.17-22.72,7.62-47.61,21-66h-.03ZM833.25,422.25c.91,3.71,1.32,8.95,4.53,11.6,11.16,4.57,22.12,10.57,33.52,14.48,7.14,2.45,12.86,4.34,18.92-1.75.72-.72.58-1.56.78-1.82,3.52-4.74,3.51-7.76,2.99-13.86-1.59-18.61-10.4-29.62-4.87-50.64,5.33-20.27,17.34-20.51,35.02-24.98,20.77-5.26,41.9-9.87,62.85-14.4,5.17-1.12,10.45-2.39,15.76-2.62,1.38-1.37-3.74-6.95-4.87-8.26-65.9-76.33-189.78-9.7-164.64,92.26h0ZM1030.49,363.01c-5.5-1.54-17.66-16.43-22.08-16.55-30.53,8.02-62,12.89-92.52,20.8-2.38.62-6.17,1.22-8.18,2.31-.88.48-1.26-.02-.95,1.68,10.32,1.37,20.76.47,31.15.72,26.92.64,54.52,3.16,80.91-3.78,3.8-1,7.6-2.11,11.22-3.64l.45-1.54h0ZM1015.5,393c-.35-3.61-1.76-7.1-3.75-10.16-11.74,1.14-23.64,2.18-35.66,1.94-15.39-.31-31.05-2.61-46.48-3.02-5.67-.15-11.31-.32-16.69,1.67-1.32,3.51-2.82,7.31-3.18,11.08-1.77,18.97,8.08,44.05-5.62,60.01-1.71,2-3.92,3.3-5.63,5.24l60-14.25-9.37-5.24c-12.25-10.02-14.34-26.8-10.81-41.51-.09-.48-1.87-1.17-2.31-1.24-3.14-4.88-1.08-10.4,4.8-11.22,13.05,3.53,25.85,7.86,38.7,11.97,5.22,1.67,11.12,5.14,16.8,4.44,2.48-.3,19.43-7.03,19.87-8.68.15-.55-.66-.9-.67-1.01v-.02ZM967.42,406.57l-18.94-6.01c-8.21,13.7-.65,35.04,16.4,36.68,16.36,1.57,24.93-8.11,24.36-23.99h-2.99c.64,4.92-1.55,13.29-7.17,14.21-13.43,2.19-13.01-11.5-11.66-20.88h0ZM1019.25,402c-9.71,1.88-5.66,6.7-7.08,13.54-1.75,8.4-8.94,6.66-11.84-.24-.8-1.91.02-5.22-2.82-5.04-.81,9.58,3.41,21.75,15.2,19.32,10.08-2.08,8.37-20.11,6.54-27.58h0ZM1149,454.5c-5.74-7.36-12.56-11.08-21.36-14.26-18.7-6.77-37.27-6.19-56.64-2.98-.36,1.75.22,1.2.97,1.68,6.27,3.99,11.04,7.55,15.92,13.31,2.19,2.58,13.08,17.69,10.86,20.26-1.5.06-2.56-1.38-3.75-2.25-2.79-2.06-5.06-4.4-8.25-6-.59-1.29-1.66-2.05-2.76-2.87-8.66-6.47-34.5-22.24-44.76-21.82-4.82.2-12.16,3.12-16.99,4.45-4.2-.22-7.97,1.38-11.99,2.26l5.99,2.99c8.3,6.56,16.8,12.79,24.02,20.61,1.19,1.29,10.59,12.27,9.73,13.14l-32.23-19.14c-10.65-4.46-22.47-13.19-34.56-11.27l-38.21,10.92c-.42,1.72.33,1.23.95,1.71,2.63,2.05,6.5,3.59,9.35,5.61,5.67,4.02,12.15,9.53,16.95,14.51,2.29,2.38,15.31,16.79,13.25,19.41-1.03-.62-1.92-.56-2.99-.75-2.26-2.55-5.99-5.22-9-6.75-16.07-11.88-36.28-28.65-57.41-27.78-6.7.27-14.02,2.42-20.59,3.78-3.02.62-5.99,1.59-9,2.25-15.07,3.31-30.16,6.73-45.01,10.88,15.17,7.25,29.09,18.52,39.32,31.94,1.2,1.57,7.33,10.01,6.43,11.18-.46.13-1.17-.12-1.49,0-2.99-2.61-6.19-4.94-9.75-6.75-10.99-9.43-24.37-18.47-37.74-24.13-20.54-8.69-26.61-5.23-47.01.13-3.15.83-10.34,2.05-12.75,3.37-.33.18-.94.86-.75,1.12,1.38.47,3.23.93,4.5,1.51,14.85,6.76,26.42,13.62,37.13,26.24.71.84,5.5,6.89,4.86,7.51-21.52-9.46-41.15-25.5-65.53-26.77-15.83,8.4-30.78,19.27-41.72,33.53-2.59,3.38-3.33,4.49-5.25,8.25-2.59,5.05-2.61,4.79-3.75,10.5-.48,2.42-.63,3.36-.75,6,0,.16-.75.7-.62,2.36.16,2.07,1.25,4.05,2.12,5.89,5.43,11.43,21.69,15.17,33.3,16.55,4.19-10.28,9.82-20.04,16.95-28.55,1.46-1.75,3.73-4.51,5.25-6,3.26-3.19,7.16-5.68,10.9-8.26.93-.65,2.22-.57,1.85-2.24,27.94-15.78,65.3-8.44,71.25,27,.69,4.12.65,9.28.75,13.5,36.57-5.74,72.28-15.68,108.6-22.65,1.69-4.71,4.11-9.01,6.55-13.36.4-.71.17-1.95.35-2.24.2-.33,1.6-2.05,2.25-3,2.2-3.25,7.73-9.9,10.5-12.75,18-18.52,51.85-31.62,73.5-11.25.4.37,4.35,5.47,5.12,6.5,1.68,2.25,2.88,7.1,5.54,6.86,4.43-.39,14.27-4.24,18.98-5.86,26.69-9.17,77.81-33.37,73.86-67.89-.54-4.71-2.61-6.73-5.25-10.12v-.02ZM879.74,463.51c-4.61.49-22.6-9.56-25.06-8.97-.78.19-1.05,1.09-1.18,1.83-.63,3.66-.24,9.23-.75,13.13.81.81,19.77-3.47,22.53-4.1,1.18-.27,4.13-.57,4.47-1.89h-.01ZM1029.75,604.5c.79.83,4.25-3.06,4.88-3.74,14.69-15.73,24.11-46.43,7.48-63.75,5.95,16.41,3.15,33.58-3.01,49.47l-9.36,18.01h.01ZM1002.55,540.18c-21.87,3.5-41.97,45.47-27.95,63.59,8.62,11.14,23.99,5.56,32.65-2.63,8.19-7.75,16.49-24.85,17.14-36.1.79-13.75-6.13-27.36-21.85-24.85h0ZM814.5,631.5c.82.87,4.6-3.44,5.22-4.14,14.49-16.28,23.76-45.55,7.14-63.34,6.47,17.51,2.76,38.29-5.22,54.76-.79,1.62-7.65,12.2-7.14,12.72h0ZM789.59,567.21c-25.04,2.69-48.52,53.05-26.34,67.17,24.19,15.4,59.61-39.45,41.14-61.39-4.01-4.76-8.6-6.45-14.8-5.78h0ZM953.25,582l-82.32,17.43c-4.88,12.8-13.33,24.15-23.82,32.8-4.34,3.59-9.37,6.38-13.85,9.76l126-20.25-3.5-7.53c-15.02,1.02-29.88,1.11-44.9,1.5-1.77.05-3.41.78-5.19.81-5.52.11-11.59.39-16.9-.79l64.44-13.54c-1.4-6.95.05-13.27.06-20.2h-.02ZM1029.38,605.25v.75c.49-.25.49-.5,0-.75ZM1027.88,606.75v.75c.49-.25.49-.5,0-.75ZM814.5,632.26h-1.49v.73h1.49v-.73ZM813,633.76h-1.49v.73h1.49v-.73Z"/>
  <path class="st18" d="M838.5,329.25c-13.38,18.39-20.83,43.28-21,66-8.09-1.6-13.53-8.19-20.01-12.61-2.94-2-24.02-14.46-25.73-12.88l8.39,14.48c9.21,31.93-21.6,38.77-46.36,32.86-5.08-1.21-9.66-3.62-14.52-5.34l11.25,16.12c16.68,16.52,46.76,12.66,55.5,37.88-12.06,2.79-24.87,6.65-36.75,10.5-12.82-5.8-27.55-5.64-39.38-14.23,1.1,2.71,2.89,5.79,4.56,8.18,1.44,2.06,6.82,4.94,2.01,5.85-6.73,1.27-16.95,1.2-23.73.12s-13.12-4.53-19.95-5.91c6.93,8.66,17.13,15.41,28.21,17.15,2.53.4,8.32.98,10.79.84.78,1.36,2.06,1.29,3.38,1.49,8.65,1.32,18.63-.25,27.37-1.49l1.49.75v-1.5h6.01c-.74,3.32,2.09,2.34,3.93,3.2,1.02.48,1.59,1.37,2.65,1.85,1.81.83,4.32.02,5.43,3.2-11.29,5.12-26.4,13.96-36,21.75-5.95-1.2-13.27-5.36-19.12-6-16.08-1.76-28.38,7.39-47.16,5.16-4.96-.59-9.81-2.12-14.72-2.9,3.86,5.06,11.15,8.61,16.98,11.14,13.49,5.85,28.87,8.23,40.77,17.36-8.15,13.05-13.28,33.04-3.31,46.43,3.37,4.52,7.27,6.39,11.36,9.6.61.48,1.38-.02.95,1.71-8,1.21-15.97,3.19-23.84,5.05-1.61.38-3.47-.08-4.66.21.38-1.9-.86-1.6-2.07-2.01-10.84-3.76-22.44-5.42-32.42-11.87-2.1-2.39,1.62-.37,1.87-.37h15.75c.85,0,8.25-2.69,9.41-3.34,11.34-6.24,2.02-12.98-6.48-14.6-20.19-3.85-31.64,1.45-50.17-12.83-16.13-12.43-20.55-29.91-34.13-42.37-.97-.89-5.89-4.14-6.02-4.5-.6-1.7,1.55-1.12,2.45-.95,26.47,5.1,25.08,21.02,43.82,31.93,12.61,7.34,27.63,7.27,39.75-1.18.65-.45,1.39.13.98-1.67-12.68-3.1-25.44-8.39-35.92-16.21-21.04-15.71-34.73-44.84-61.56-50.94-4.99-1.14-10.15-.72-15.03-2.22,20.2-9.4,44.06-12.86,63.4.36,10.39,7.1,17.14,18.25,29.34,23.16,6.88,2.77,15.24,4.14,19.66-3.38,6.2-10.57-7.99-17.1-14.49-22.79-11.16-9.77-21.48-21.37-36-26.25-4.96-1.67-9.92-2.05-15.01-3-1.22-.23-1.3.51-1.14-1.47,16.84-5.24,30.74-9,47.99-2.62,14.31,5.29,23.65,16.22,40.13,14.61,21.35-2.09,16.5-28.54,6.02-40.5-4.77-5.45-21.5-15.74-28.51-15.74h-19.12c9.52-8.99,27.6-17.61,40.86-18.04,20.01-.65,37.38,17.64,53.98,14.99,11.34-1.81,11.82-15.42,8.29-23.95-7.07-17.12-31.58-26.97-48.85-20.33-.96.42-1.39-.2-1.02-1.03,1.59-3.6,16.69-11.44,20.8-12.96,14.91-5.52,27.17-4.03,41.21,2.69,10.92,5.23,30.6,23.69,41.49,9.51,10.21-13.3-1.46-35.44-12-45.36,20.57.42,31.87,19.9,48,29.24l-.05-.03Z"/>
  <path class="st15" d="M971.91,673.59l30.78,67.67c-.19.66-10.87,6.59-11.92,6.93-.8.26-1.51.56-2.28-.02l-17.62-36.41-1.57,33.08-7.03,1.82-21.77-22.9,14.28,39.38c.07,1.61-.26.86-1.09,1.2-4.11,1.67-8.73,2.37-12.75,4.36l-26.67-71.16,17.11-5.17,25.61,26.89-1.38-37.75c2.36-1.62,14.31-9.15,16.29-7.9v-.02Z"/>
  <path class="st10" d="M890.94,701.3l23.27,73.02c-.39.84-.98,1.03-1.84,1.18-4.55.77-10.18.63-14.88,1.54l-4.3-13.49-19.45,1.44-1.51,14.24-16.49.76,12.86-76.39,22.33-2.3h.01ZM888.75,750l-8.25-27.75-4.5,29.25,12.75-1.5Z"/>
  <path class="st6" d="M668.25,267.76l21.67,25.27c.49,2.38-9.46,9.56-10.7,9.18l-41.75-48.36c0-1.09,9.64-9,11.65-9.3l31.51,13.43-19.08-24.46c-.29-1.66,8.83-8.14,10.72-9.22l40.23,50.55-10.03,7.14-34.22-14.24h0Z"/>
  <path class="st10" d="M846,703.51l-2.25,14.24c-8.09.33-16.19-.89-23.99-2.99l-2.26,15,20.26,2.26-2.35,14.14-20.12-2.88-2.97,16.42,23.98,3.41c.93.64.55,1.11.42,1.92-.61,4.01-1.95,8.61-2.81,12.63l-41.13-5.92,13.51-74.2,39.72,5.98h-.01Z"/>
  <path class="st6" d="M825.75,230.25l-3.76-65.25c9.92.13,25.28-4.14,34.28.59,10.14,5.33,11.59,22.65.99,28.28,12.66,5.22,14.43,23.21,3.36,31.12-8.24,5.89-25.04,3-34.87,5.25h0ZM837.75,189.75c16.87,3.15,18.47-16.45,1.24-14.13l-1.24,1v13.12h0ZM839.26,216.74c19.07,3.54,18-20.95-.67-14.91l.67,14.91Z"/>
  <path class="st23" d="M778.49,172.5l18.69,62.53-13.41,4.23-7.89-24.01c-1.03-1.31-7.32.78-9.03,1.48-1.91.78-3.45.81-3.34,3.32.19,4.16,8.16,20.86,7.44,23.24l-13.44,4.97-21.76-61.5,15-4.51,7.58,22.43,12.74-4.15-6.81-23.52,14.24-4.51h0Z"/>
  <path class="st23" d="M951.58,176.46c10.28-.27,27.44,7.52,27.19,19.63-.04,1.8-1.31,9.36-3.34,9.4-.8.02-11.19-3.6-11.7-4.1-2.03-1.99,1.2-6.69-3.18-9.57-3.27-2.15-7.87-3.26-10.2.65l-9.7,32.37c1.61,11.36,15.27,7.89,15.3-2.87l-6.39-2.69,3.42-9.98c.97-.29,17.9,5.29,19.27,6.08.75.43,1.35.65,1.25,1.69-6.94,17.54-11.23,35.17-34.47,25.54-19.56-8.1-13.22-20.47-8.46-36.18,2.02-6.67,6.69-24.02,12.27-27.48,2-1.24,6.44-2.42,8.76-2.49h-.02Z"/>
  <path class="st23" d="M621.75,333.74l27.38,3.01,1.88,1.14-7.25,12.39c-8.37-.25-16.88-2.76-25.16-3.31-1.16-.08-1.85-.92-2.83.66l20.66,13.1c1.62,2.5-5.52,9.66-5.68,12.76l-54.78-32.63c-.12-1.29.65-2.31,1.14-3.4,2.21-4.93,11.06-20.48,15.15-23.09,11.25-7.2,33.57,5.08,29.5,19.37h-.01ZM592.53,335.21l13.85,7.55c7.91-5.05,3.37-12.82-3.84-15.68-6.12-2.43-8.38,3.19-10.02,8.13h.01Z"/>
  <path class="st15" d="M918.75,234l-14.93-2.33-.08-11.17-14.89-1.4-3.11,10.4-15-2.26,23-62.12c2.28-.78,13.93.9,17.01,1.5,1.6.31,5.16.39,5.65,1.85l2.35,65.53h0ZM903,208.5l-1.12-26.24-8.63,24.74,9.75,1.5Z"/>
  <path class="st15" d="M1022.29,208.53l12.63,6.8.11,1c-7.41,11.69-13.65,24.3-21.17,35.89-6.1,9.4-8.55,14.68-21.24,13.27-8.25-.91-20.63-9.56-21.38-18.38-.79-9.23,13.27-28.54,18.14-37.37,2.73-4.96,5.24-10.26,7.38-15.5.57-.43,12.26,5.84,12.75,6.37.64.7.96,1.23.77,2.21l-22.91,40.15c-2.83,5.69,5.62,11.96,10.17,7.93l24.76-42.37h-.01Z"/>
  <polygon class="st15" points="795.75 695.26 790.46 709.47 774.03 704.27 753.71 758.97 737.29 753.71 758.99 698.6 759 697.51 742.52 691.47 748.46 676.82 795.75 695.26"/>
  <path class="st23" d="M732,212.99l-12.33,6.06c-2.8-4.86-4.54-8.26-10.42-4.42-4.68,3.06-2.8,6.36-.89,10.38,1.62,3.41,13.67,24.79,15.56,25.69,3.96,1.88,9.09-1.17,8.88-5.81-.12-2.66-2.45-4.15-1.99-6.4.33-.52,10-5.45,10.92-5.69,2.53-.65,4.72,6.33,5.22,8.37,4.46,18.18-22.1,31.71-34.11,19.86-5.08-5.02-19.95-32.56-20.59-39.41-1.04-11.1,6.08-18.01,15.97-21.51,12.42-4.4,19.45,1.66,23.77,12.88h.01Z"/>
  <path class="st15" d="M1158,369.74l-11.99,5.26-7.52-18.75c-2.19.93-10.28,3.68-10.54,5.64-.39,3.06,4.93,10.93,5.96,14.37l-.68,1.35-10.79,4.2-6.52-14.25-11.18,3.7,6.69,16.75-10.74,5.68-13.26-29.5,55.97-26.71,1.69,1.29,12.9,30.96h.01Z"/>
  <path class="st23" d="M655.4,332.15l-1.59-.04-48.5-39.33,19.94-26.58c2.19-.47,9.95,6.61,9.99,7.9.07,2.82-9.65,11.35-10.5,15.03-.01,1.24,7.48,7.2,8.53,7.03l9.86-11.2,9.34,7.84-9.01,12.07,8.8,7.78,1.75-.26,10.19-12.37,9.23,7.23-18.03,24.89h0Z"/>
  <path class="st23" d="M1055.94,263.33l-6.71,10.42-13.13-9.78-6.73,7.55c-.57.98-.63,2-.01,2.99,1.32,2.11,11.62,7.89,12.28,10.29.16,3.81-4.84,6.38-6.35,10.02l-25.76-19.28,37.97-49.71c1.54-.39,8.58,5.33,10.34,6.7,5.27,4.13,10.19,8.92,15.34,13.21-1.27,1.91-5.82,9.3-7.82,9.3-1.89,0-10.62-9.29-13.16-10.18-1.08-.38-.98-.37-1.87.34-.52.42-6.42,8.08-6.32,8.6l11.91,9.53h.02Z"/>
  <path class="st10" d="M581.24,358.54l-5.68,17.99,10.97,3.42,5.26-13.92,11.91,3.77-4.43,15.67,23.2,8.32-5.19,13.15-58.21-20.65c-.71-1.03-.19-2.02,0-3.06,1.59-8.65,7.9-18.82,9.8-27.73,1.61-2.05,9.93,2.66,12.36,3.05h.01Z"/>
  <path class="st15" d="M1091.24,282l-37.16,35.22-9.29-10.16,34.88-34.05c1.76-3.19-7.94-9.39-7.94-11.63l8.75-8.57c10.6,8.15,18.28,19.71,27.22,29.67.17.97-7.95,7.78-9.34,7.78-1.57,0-6.41-6.38-7.13-8.25h.01Z"/>
  <path class="st15" d="M1116.66,291.84c1.82,3.26,3.52,6.72,5.48,9.89,3.68,5.97,12.11,16.71,14.45,22.31.36.86.78,1.98.28,2.84-.31.52-9.84,6.51-10.36,6.12-.06-.9-.4-1.72-.88-2.49-1.17-1.88-4.84-8.49-6.87-7.93-4.9,2.65-37.41,27.71-39.51,26.59-.78-.42-7.89-11.09-7.5-11.66l40.49-27.03-6.81-12.29c2.17-.85,9.54-7.33,11.22-6.36h.01Z"/>
  <path class="st18" d="M577.88,511.5c.49.25.49.5,0,.75v-.75Z"/>
  <path class="st3" d="M1149,454.5c-7.33,29.11-33.74,45.7-59.49,57.13-12.52,5.56-25.52,9.88-38.76,13.37-21.65-20.37-55.5-7.27-73.5,11.25l-92.95,22.55c-.98,5.34,5.52,4.68,9.31,4.44,13.33-.86,32.24-6.81,45.98-9.51,8.98-1.77,18.17-2.95,27.15-4.72-.65.95-2.05,2.67-2.25,3l-116.25,24.75c-5.95-35.44-43.31-42.78-71.25-27l-69,14.25c1.14-5.71,1.16-5.45,3.75-10.5,7.97.45,17.08-1.09,24.76-3.36,3.33-.99,17.72-5.63,10.17-9.32l-29.68,4.43c10.94-14.26,25.89-25.13,41.72-33.53,24.37,1.28,44.01,17.31,65.53,26.77.64-.61-4.15-6.67-4.86-7.51-10.71-12.62-22.29-19.48-37.13-26.24.75-1.35,2.71-.72,3.91-.55,15.08,2.13,33.67,6.71,48.43,10.84,14.49,4.06,29.87,11.06,44.25,14.25,3.11.69,3.67,1.52,6.91.22.32-.13,1.03.12,1.49,0,.9-1.18-5.23-9.61-6.43-11.18-10.23-13.42-24.15-24.68-39.32-31.94,14.85-4.15,29.94-7.57,45.01-10.88-.44,2.32,1.14,1.28,2.5,1.59,31.16,7.12,63.04,21.62,93.5,26.91,1.07.19,1.96.13,2.99.75,2.06-2.62-10.96-17.03-13.25-19.41-4.8-4.99-11.28-10.49-16.95-14.51-2.85-2.02-6.72-3.56-9.35-5.61-.62-.48-1.37.01-.95-1.71l38.21-10.92c12.08-1.92,23.9,6.81,34.56,11.27l32.23,19.14c.87-.87-8.54-11.85-9.73-13.14-7.21-7.81-15.72-14.04-24.02-20.61,25.42,3.94,50.56,13.42,75.36,21.02.99.3,2.72,1.42,3.39-.02,1.18.87,2.24,2.31,3.75,2.25,2.22-2.56-8.68-17.67-10.86-20.26-4.88-5.76-9.64-9.32-15.92-13.31-.75-.48-1.33.07-.97-1.68,19.37-3.21,37.94-3.79,56.64,2.98,8.8,3.19,15.62,6.91,21.36,14.26h.01ZM920.25,539.24c2.14,3.27,28.32-3.09,33.01-4.1,8.5-1.84,25.29-4.88,32.02-9.23.73-.47,1.97-.82,1.72-2.01-3.22-2.49-7.12-1.64-10.65-.91-8.31,1.72-17.49,5.03-25.92,7.07-4.98,1.2-26.95,4.58-29.41,6.59-.78.64-1.16,1.99-.76,2.6h-.01ZM886.88,530.25v.75c.49-.25.49-.5,0-.75Z"/>
  <path class="st1" d="M833.25,422.25c-25.15-101.96,98.74-168.59,164.64-92.26,1.13,1.31,6.25,6.89,4.87,8.26-5.31.23-10.59,1.5-15.76,2.62-20.95,4.53-42.08,9.14-62.85,14.4-17.67,4.47-29.68,4.72-35.02,24.98-5.53,21.03,3.28,32.04,4.87,50.64.52,6.11.53,9.12-2.99,13.86-13.27-3.18-26.27-7.87-38.76-13.37-6.45-2.84-12.48-6.49-18.99-9.13h-.01ZM862.5,387l-16.9,12.73-.31,1.83,31.03,12.41c.71-.47,1.12-.85,1.14-1.77.1-3.76-3.69-11.62-3.72-16.2-.06-7.93,3.94-19.02,4.19-27,.02-.68.57-1.31-.41-1.9l-32.28-2.59c-.33,1.29.53,1.5,1.11,2.25,5.01,6.47,10.92,14.37,16.13,20.24h.02Z"/>
  <path class="st0" d="M817.5,395.25c-.08,11.22,2.32,39,10.47,46.9,5.25,5.09,14.09,3.27,12.76,13.08l-50.84,10.31c-1.19.49-2.87-.03-3.89.21-8.74-25.22-38.82-21.36-55.5-37.88l-11.25-16.12c4.87,1.72,9.45,4.13,14.52,5.34,24.76,5.91,55.58-.94,46.36-32.86l-8.39-14.48c1.71-1.58,22.8,10.88,25.73,12.88,6.49,4.43,11.92,11.01,20.01,12.61h.02Z"/>
  <path class="st20" d="M953.25,582c0,6.93-1.46,13.25-.06,20.2l-64.44,13.54c5.31,1.18,11.38.9,16.9.79,1.77-.04,3.41-.77,5.19-.81,15.02-.38,29.89-.48,44.9-1.5l3.5,7.53-126,20.25c4.48-3.38,9.51-6.18,13.85-9.76,10.49-8.66,18.94-20.01,23.82-32.8l82.32-17.43h.02Z"/>
  <path class="st2" d="M789.59,567.21c6.2-.67,10.79,1.02,14.8,5.78,18.47,21.94-16.95,76.79-41.14,61.39-22.18-14.12,1.3-64.47,26.34-67.17h0ZM784.3,585.18c-10.23,1.89-20.41,22.18-13.33,30.98,7.92,9.83,20.32-4.23,23.11-12.2,3.14-8.95,2.94-21.12-9.78-18.78h0Z"/>
  <path class="st25" d="M1002.55,540.18c15.72-2.51,22.64,11.1,21.85,24.85-.65,11.25-8.95,28.36-17.14,36.1-8.66,8.19-24.03,13.78-32.65,2.63-14.02-18.12,6.08-60.09,27.95-63.59h-.01ZM992.52,562.02c-6.41,5.89-13.36,21.84-5.84,28.94,11.67,11.01,32.03-19.97,21.73-30.73-4.43-4.63-11.79-1.98-15.89,1.8h0Z"/>
  <path class="st24" d="M1050.75,525c13.24-3.49,26.24-7.81,38.76-13.37,25.75-11.43,52.16-28.02,59.49-57.13,2.65,3.39,4.71,5.42,5.25,10.12,3.94,34.52-47.17,58.72-73.86,67.89-4.71,1.62-14.54,5.47-18.98,5.86-2.67.23-3.86-4.62-5.54-6.86-.77-1.03-4.72-6.13-5.12-6.5h0Z"/>
  <path class="st5" d="M936,397.5c.45.07,2.22.76,2.31,1.24-3.52,14.71-1.43,31.49,10.81,41.51l9.37,5.24-60,14.25c1.71-1.94,3.92-3.24,5.63-5.24,13.7-15.96,3.85-41.04,5.62-60.01,8.67,1.19,17.62,1.7,26.25,3h.01Z"/>
  <path class="st14" d="M1030.49,363.01l-.45,1.54c-3.62,1.53-7.43,2.64-11.22,3.64-26.39,6.94-54,4.42-80.91,3.78-10.4-.25-20.84.64-31.15-.72-.31-1.7.08-1.2.95-1.68,2.01-1.09,5.8-1.69,8.18-2.31,30.52-7.91,62-12.78,92.52-20.8,4.42.12,16.59,15.01,22.08,16.55h0Z"/>
  <path class="st24" d="M964.5,552c-.18.3.05,1.53-.35,2.24-2.44,4.35-4.85,8.65-6.55,13.36-36.32,6.97-72.03,16.91-108.6,22.65-.1-4.22-.06-9.38-.75-13.5l116.25-24.75h0Z"/>
  <path class="st0" d="M726,517.5c-6.82,5.54-18.68,17.44-23.25,24.75-11.9-9.13-27.28-11.51-40.77-17.36-5.83-2.53-13.12-6.08-16.98-11.14,4.91.78,9.76,2.31,14.72,2.9,18.78,2.23,31.08-6.92,47.16-5.16,5.85.64,13.17,4.81,19.12,6h0Z"/>
  <path class="st11" d="M1015.5,393c-10.56,3.73-20.8,4.37-31.89,4.49-1.27.01-3.33-.48-4.11.76-12.85-4.11-25.65-8.45-38.7-11.97-5.89.82-7.94,6.34-4.8,11.22-8.63-1.3-17.58-1.81-26.25-3,.35-3.77,1.86-7.57,3.18-11.08,5.38-1.99,11.02-1.82,16.69-1.67,15.42.41,31.09,2.71,46.48,3.02,12.02.24,23.92-.8,35.66-1.94,1.99,3.06,3.39,6.55,3.75,10.16h0Z"/>
  <path class="st2" d="M967.42,406.57c-1.34,9.38-1.77,23.07,11.66,20.88,5.62-.92,7.81-9.29,7.17-14.21h2.99c.56,15.88-8.01,25.56-24.36,23.99-17.05-1.64-24.61-22.98-16.4-36.68l18.94,6.01h0Z"/>
  <path class="st9" d="M749.25,476.25c-10.27,3.32-27.57,11.43-37.5,12-2.47.14-8.25-.44-10.79-.84-11.09-1.74-21.28-8.49-28.21-17.15,6.83,1.38,13,4.81,19.95,5.91s17,1.15,23.73-.12c4.81-.91-.57-3.79-2.01-5.85-1.67-2.39-3.46-5.48-4.56-8.18,11.83,8.6,26.56,8.43,39.38,14.23h.01Z"/>
  <path class="st24" d="M759,566.25c-7.14,8.52-12.77,18.28-16.95,28.55-11.61-1.38-27.86-5.12-33.3-16.55l50.25-12Z"/>
  <path class="st24" d="M977.25,536.25c-2.77,2.85-8.3,9.5-10.5,12.75-8.99,1.77-18.17,2.95-27.15,4.72-13.74,2.7-32.65,8.66-45.98,9.51-3.79.24-10.29.9-9.31-4.44l92.95-22.55h-.01Z"/>
  <path class="st26" d="M791.25,498.75c21.65,4,43.34,8.43,64.14,15.74,6.24,2.19,14.83,5.33,20.61,8.26,3.56,1.81,6.76,4.14,9.75,6.75-3.24,1.3-3.8.47-6.91-.22-14.38-3.18-29.76-10.19-44.25-14.25-14.76-4.13-33.34-8.71-48.43-10.84-1.2-.17-3.16-.79-3.91.55-1.27-.58-3.12-1.04-4.5-1.51-.19-.26.41-.94.75-1.12,2.42-1.32,9.6-2.54,12.75-3.37h0Z"/>
  <path class="st19" d="M876,522.75c-5.78-2.94-14.38-6.07-20.61-8.26-20.8-7.3-42.49-11.74-64.14-15.74,20.4-5.36,26.47-8.82,47.01-.13,13.38,5.66,26.75,14.7,37.74,24.13Z"/>
  <path class="st26" d="M895.5,473.25l16.53,2.6c19.25,6.13,43.56,12.32,61.47,21.4,3.01,1.53,6.74,4.2,9,6.75-30.46-5.29-62.34-19.79-93.5-26.91-1.36-.31-2.94.73-2.5-1.59,3.01-.66,5.98-1.63,9-2.25Z"/>
  <path class="st22" d="M891,444.75c-.19.26-.06,1.1-.78,1.82-6.06,6.09-11.78,4.2-18.92,1.75-11.4-3.91-22.37-9.91-33.52-14.48-3.21-2.64-3.61-7.89-4.53-11.6,6.51,2.65,12.54,6.29,18.99,9.13,12.48,5.5,25.49,10.19,38.76,13.37h0Z"/>
  <path class="st19" d="M973.5,497.25c-17.92-9.08-42.22-15.27-61.47-21.4l-16.53-2.6c6.58-1.36,13.89-3.51,20.59-3.78,21.13-.87,41.34,15.9,57.41,27.78Z"/>
  <path class="st24" d="M777,549.75c.37,1.67-.92,1.59-1.85,2.24-3.74,2.59-7.64,5.07-10.9,8.26-19.1,2.56-37.59,9.43-57,9.75.12-2.64.27-3.58.75-6l69-14.25Z"/>
  <path class="st26" d="M1022.25,444c13.77.72,51.57,13.76,64.5,20.25,3.19,1.6,5.46,3.94,8.25,6-.66,1.44-2.4.32-3.39.02-24.81-7.6-49.94-17.08-75.36-21.02l-5.99-2.99c4.03-.88,7.8-2.48,11.99-2.26Z"/>
  <path class="st19" d="M1086.75,464.25c-12.93-6.49-50.73-19.53-64.5-20.25,4.82-1.33,12.16-4.25,16.99-4.45,10.25-.42,36.1,15.35,44.76,21.82,1.1.82,2.17,1.58,2.76,2.87h-.01Z"/>
  <path class="st8" d="M1019.25,402c1.83,7.46,3.54,25.5-6.54,27.58-11.79,2.43-16.01-9.74-15.2-19.32,2.84-.17,2.02,3.13,2.82,5.04,2.9,6.9,10.09,8.64,11.84.24,1.42-6.84-2.64-11.66,7.08-13.54h0Z"/>
  <path class="st3" d="M764.25,560.25c-1.52,1.49-3.79,4.25-5.25,6l-50.25,12c-.87-1.84-1.96-3.82-2.12-5.89-.13-1.66.62-2.2.62-2.36,19.41-.32,37.9-7.19,57-9.75Z"/>
  <path class="st21" d="M1029.75,604.5l9.36-18.01c6.15-15.89,8.95-33.06,3.01-49.47,16.63,17.32,7.21,48.02-7.48,63.75-.63.68-4.1,4.56-4.88,3.74h-.01Z"/>
  <path class="st21" d="M814.5,631.5c-.5-.53,6.36-11.1,7.14-12.72,7.98-16.47,11.69-37.25,5.22-54.76,16.62,17.79,7.35,47.05-7.14,63.34-.63.7-4.4,5.01-5.22,4.14h0Z"/>
  <path class="st13" d="M772.5,483c.21-.06.59-1.26,1.35-1.43,15.57-3.44,31.21-6.6,46.64-10.57.3,1.41-.7,1.81-1.56,2.56-10.95,9.58-30.06,11.2-43.44,16.18-.33-3.02-3.13-4.3-3-6.75h.01Z"/>
  <path class="st24" d="M711.75,553.5c1.92-3.76,2.66-4.87,5.25-8.25l29.68-4.43c7.55,3.69-6.83,8.33-10.17,9.32-7.68,2.27-16.79,3.81-24.76,3.36Z"/>
  <path class="st17" d="M879.74,463.51c-.34,1.33-3.29,1.62-4.47,1.89-2.76.63-21.72,4.91-22.53,4.1.51-3.89.12-9.47.75-13.13.13-.74.41-1.64,1.18-1.83,2.47-.6,20.46,9.46,25.06,8.97h.01Z"/>
  <path class="st16" d="M772.5,483c-.13,2.45,2.67,3.73,3,6.75-3.42,1.27-9.7,4.28-13.5,6-1.11-3.18-3.61-2.36-5.43-3.2-1.05-.48-1.63-1.37-2.65-1.85-1.83-.86-4.67.12-3.93-3.2,6.06-3.36,15.94-2.77,22.5-4.5h.01Z"/>
  <path class="st8" d="M1015.5,393c.01.11.82.47.67,1.01-.44,1.65-17.38,8.37-19.87,8.68-5.69.7-11.59-2.77-16.8-4.44.78-1.24,2.85-.75,4.11-.76,11.09-.12,21.33-.76,31.89-4.49Z"/>
  <path class="st16" d="M744,487.5v1.5l-1.5-.75c.08-.01.62-1.07,1.5-.75Z"/>
  <rect class="st21" x="813" y="632.26" width="1.49" height=".73"/>
  <rect class="st21" x="811.5" y="633.76" width="1.49" height=".73"/>
  <path class="st21" d="M1029.38,605.25c.49.25.49.5,0,.75v-.75Z"/>
  <path class="st21" d="M1027.88,606.75c.49.25.49.5,0,.75v-.75Z"/>
  <polygon class="st20" points="888.75 750 876.01 751.5 880.51 722.25 888.75 750"/>
  <path class="st20" d="M839.26,216.74l-.67-14.91c18.68-6.04,19.74,18.45.67,14.91Z"/>
  <path class="st20" d="M837.75,189.75v-13.12l1.24-1c17.22-2.32,15.63,17.28-1.24,14.13h0Z"/>
  <path class="st20" d="M592.53,335.21c1.64-4.95,3.9-10.57,10.02-8.13,7.2,2.87,11.75,10.63,3.84,15.68l-13.85-7.55h-.01Z"/>
  <polygon class="st20" points="903 208.5 893.25 206.99 901.88 182.25 903 208.5"/>
  <path class="st24" d="M920.25,539.24c-.4-.61-.02-1.96.76-2.6,2.46-2.02,24.43-5.39,29.41-6.59,8.44-2.04,17.61-5.35,25.92-7.07,3.54-.73,7.43-1.58,10.65.91.25,1.19-.99,1.54-1.72,2.01-6.73,4.35-23.52,7.39-32.02,9.23-4.68,1.02-30.87,7.38-33.01,4.1h.01Z"/>
  <path class="st26" d="M886.88,530.25c.49.25.49.5,0,.75v-.75Z"/>
  <path class="st4" d="M873.75,396c-3.5-1.59-6.7-5.44-9.38-8.27-.55-.58-1.76-.6-1.87-.73-5.21-5.87-11.13-13.78-16.13-20.24-.58-.75-1.45-.96-1.11-2.25l32.28,2.59c.98.59.43,1.22.41,1.9-.25,7.98-4.25,19.07-4.19,27h-.01Z"/>
  <path class="st7" d="M873.75,396c.03,4.58,3.82,12.44,3.72,16.2-.02.92-.43,1.3-1.14,1.77l-31.03-12.41.31-1.83,16.9-12.73c.11.12,1.31.15,1.87.73,2.69,2.83,5.88,6.68,9.38,8.27h0Z"/>
  <path class="st27" d="M784.3,585.18c12.72-2.34,12.92,9.83,9.78,18.78-2.79,7.97-15.19,22.03-23.11,12.2-7.08-8.8,3.09-29.09,13.33-30.98h0Z"/>
  <path class="st27" d="M992.52,562.02c4.11-3.78,11.46-6.43,15.89-1.8,10.29,10.76-10.06,41.74-21.73,30.73-7.52-7.09-.57-23.04,5.84-28.94h0Z"/>
</svg>